<svg width="512" height="512" viewBox="0 0 512 512" fill="none" xmlns="http://www.w3.org/2000/svg">
<rect x="9.62408" width="492.752" height="512" rx="56" fill="#D9D9D9"/>
<path d="M262.894 275.72C280.096 279.386 293.914 287.987 304.348 301.523C314.782 314.777 319.999 330.005 319.999 347.207C319.999 372.023 311.257 391.763 293.773 406.427C276.571 420.809 252.46 428 221.44 428H83.1186V131.054H216.787C246.961 131.054 270.508 137.963 287.428 151.781C304.63 165.599 313.231 184.352 313.231 208.04C313.231 225.524 308.578 240.047 299.272 251.609C290.248 263.171 278.122 271.208 262.894 275.72ZM155.452 251.186H202.828C214.672 251.186 223.696 248.648 229.9 243.572C236.386 238.214 239.629 230.459 239.629 220.307C239.629 210.155 236.386 202.4 229.9 197.042C223.696 191.684 214.672 189.005 202.828 189.005H155.452V251.186ZM208.75 369.626C220.876 369.626 230.182 366.947 236.668 361.589C243.436 355.949 246.82 347.912 246.82 337.478C246.82 327.044 243.295 318.866 236.245 312.944C229.477 307.022 220.03 304.061 207.904 304.061H155.452V369.626H208.75ZM395.792 431.384C383.102 431.384 372.668 427.718 364.49 420.386C356.594 412.772 352.646 403.466 352.646 392.468C352.646 381.188 356.594 371.741 364.49 364.127C372.668 356.513 383.102 352.706 395.792 352.706C408.2 352.706 418.352 356.513 426.248 364.127C434.426 371.741 438.515 381.188 438.515 392.468C438.515 403.466 434.426 412.772 426.248 420.386C418.352 427.718 408.2 431.384 395.792 431.384Z" fill="#2A3659"/>
</svg>
