<svg width="121" height="102" viewBox="0 0 121 102" fill="none" xmlns="http://www.w3.org/2000/svg">
<rect x="6.25381" y="44.8848" width="108.639" height="55.792" fill="#51250C" stroke="black" stroke-width="2"/>
<path d="M1 28.8519C1 23.8814 5.02944 19.8519 10 19.8519H110.838C115.808 19.8519 119.838 23.8814 119.838 28.8519V44.6981C119.838 48.9684 116.837 52.6508 112.655 53.5128L61.937 63.966C60.7324 64.2143 59.4896 64.2131 58.2855 63.9623L8.16531 53.526C3.99141 52.6569 1 48.9784 1 44.715V28.8519Z" fill="#51250C" stroke="black" stroke-width="2"/>
<rect x="51.3748" y="61.2644" width="18.3972" height="10.671" fill="#D9B021" stroke="black" stroke-width="2"/>
<rect x="71.772" y="1" width="4.49001" height="23.3419" fill="#D9D9D9" stroke="black" stroke-width="2"/>
<rect x="44.8848" y="1" width="4.49001" height="23.3419" fill="#D9D9D9" stroke="black" stroke-width="2"/>
<rect x="76.262" y="1" width="4.49001" height="31.3772" transform="rotate(90 76.262 1)" fill="black" stroke="black" stroke-width="2"/>
</svg>
