<svg width="192" height="64" viewBox="0 0 192 64" fill="none" xmlns="http://www.w3.org/2000/svg">
<rect x="21" y="14" width="145" height="37" rx="12" fill="#F2F2F2"/>
<path d="M45.968 32C46.9846 32.2167 47.8013 32.725 48.418 33.525C49.0346 34.3083 49.343 35.2083 49.343 36.225C49.343 37.6917 48.8263 38.8583 47.793 39.725C46.7763 40.575 45.3513 41 43.518 41H35.343V23.45H43.243C45.0263 23.45 46.418 23.8583 47.418 24.675C48.4346 25.4917 48.943 26.6 48.943 28C48.943 29.0333 48.668 29.8917 48.118 30.575C47.5846 31.2583 46.868 31.7333 45.968 32ZM39.618 30.55H42.418C43.118 30.55 43.6513 30.4 44.018 30.1C44.4013 29.7833 44.593 29.325 44.593 28.725C44.593 28.125 44.4013 27.6667 44.018 27.35C43.6513 27.0333 43.118 26.875 42.418 26.875H39.618V30.55ZM42.768 37.55C43.4846 37.55 44.0346 37.3917 44.418 37.075C44.818 36.7417 45.018 36.2667 45.018 35.65C45.018 35.0333 44.8096 34.55 44.393 34.2C43.993 33.85 43.4346 33.675 42.718 33.675H39.618V37.55H42.768ZM58.1725 41.2C56.8058 41.2 55.5725 40.9083 54.4725 40.325C53.3891 39.7417 52.5308 38.9083 51.8975 37.825C51.2808 36.7417 50.9725 35.475 50.9725 34.025C50.9725 32.5917 51.2891 31.3333 51.9225 30.25C52.5558 29.15 53.4225 28.3083 54.5225 27.725C55.6225 27.1417 56.8558 26.85 58.2225 26.85C59.5891 26.85 60.8225 27.1417 61.9225 27.725C63.0225 28.3083 63.8891 29.15 64.5225 30.25C65.1558 31.3333 65.4725 32.5917 65.4725 34.025C65.4725 35.4583 65.1475 36.725 64.4975 37.825C63.8641 38.9083 62.9891 39.7417 61.8725 40.325C60.7725 40.9083 59.5391 41.2 58.1725 41.2ZM58.1725 37.5C58.9891 37.5 59.6808 37.2 60.2475 36.6C60.8308 36 61.1225 35.1417 61.1225 34.025C61.1225 32.9083 60.8391 32.05 60.2725 31.45C59.7225 30.85 59.0391 30.55 58.2225 30.55C57.3891 30.55 56.6975 30.85 56.1475 31.45C55.5975 32.0333 55.3225 32.8917 55.3225 34.025C55.3225 35.1417 55.5891 36 56.1225 36.6C56.6725 37.2 57.3558 37.5 58.1725 37.5ZM72.0154 29.025C72.4154 28.375 72.9904 27.85 73.7404 27.45C74.4904 27.05 75.3488 26.85 76.3154 26.85C77.4654 26.85 78.5071 27.1417 79.4404 27.725C80.3738 28.3083 81.1071 29.1417 81.6404 30.225C82.1904 31.3083 82.4654 32.5667 82.4654 34C82.4654 35.4333 82.1904 36.7 81.6404 37.8C81.1071 38.8833 80.3738 39.725 79.4404 40.325C78.5071 40.9083 77.4654 41.2 76.3154 41.2C75.3321 41.2 74.4738 41.0083 73.7404 40.625C73.0071 40.225 72.4321 39.7 72.0154 39.05V41H67.7404V22.5H72.0154V29.025ZM78.1154 34C78.1154 32.9333 77.8154 32.1 77.2154 31.5C76.6321 30.8833 75.9071 30.575 75.0404 30.575C74.1904 30.575 73.4654 30.8833 72.8654 31.5C72.2821 32.1167 71.9904 32.9583 71.9904 34.025C71.9904 35.0917 72.2821 35.9333 72.8654 36.55C73.4654 37.1667 74.1904 37.475 75.0404 37.475C75.8904 37.475 76.6154 37.1667 77.2154 36.55C77.8154 35.9167 78.1154 35.0667 78.1154 34ZM88.9832 29.025C89.3832 28.375 89.9582 27.85 90.7082 27.45C91.4582 27.05 92.3165 26.85 93.2832 26.85C94.4332 26.85 95.4749 27.1417 96.4082 27.725C97.3415 28.3083 98.0749 29.1417 98.6082 30.225C99.1582 31.3083 99.4332 32.5667 99.4332 34C99.4332 35.4333 99.1582 36.7 98.6082 37.8C98.0749 38.8833 97.3415 39.725 96.4082 40.325C95.4749 40.9083 94.4332 41.2 93.2832 41.2C92.2999 41.2 91.4415 41.0083 90.7082 40.625C89.9749 40.225 89.3999 39.7 88.9832 39.05V41H84.7082V22.5H88.9832V29.025ZM95.0832 34C95.0832 32.9333 94.7832 32.1 94.1832 31.5C93.5999 30.8833 92.8749 30.575 92.0082 30.575C91.1582 30.575 90.4332 30.8833 89.8332 31.5C89.2499 32.1167 88.9582 32.9583 88.9582 34.025C88.9582 35.0917 89.2499 35.9333 89.8332 36.55C90.4332 37.1667 91.1582 37.475 92.0082 37.475C92.8582 37.475 93.5832 37.1667 94.1832 36.55C94.7832 35.9167 95.0832 35.0667 95.0832 34ZM103.826 25.6C103.076 25.6 102.459 25.3833 101.976 24.95C101.509 24.5 101.276 23.95 101.276 23.3C101.276 22.6333 101.509 22.0833 101.976 21.65C102.459 21.2 103.076 20.975 103.826 20.975C104.559 20.975 105.159 21.2 105.626 21.65C106.109 22.0833 106.351 22.6333 106.351 23.3C106.351 23.95 106.109 24.5 105.626 24.95C105.159 25.3833 104.559 25.6 103.826 25.6ZM105.951 27.05V41H101.676V27.05H105.951ZM122.199 33.8C122.199 34.2 122.174 34.6167 122.124 35.05H112.449C112.516 35.9167 112.791 36.5833 113.274 37.05C113.774 37.5 114.382 37.725 115.099 37.725C116.166 37.725 116.907 37.275 117.324 36.375H121.874C121.641 37.2917 121.216 38.1167 120.599 38.85C119.999 39.5833 119.241 40.1583 118.324 40.575C117.407 40.9917 116.382 41.2 115.249 41.2C113.882 41.2 112.666 40.9083 111.599 40.325C110.532 39.7417 109.699 38.9083 109.099 37.825C108.499 36.7417 108.199 35.475 108.199 34.025C108.199 32.575 108.491 31.3083 109.074 30.225C109.674 29.1417 110.507 28.3083 111.574 27.725C112.641 27.1417 113.866 26.85 115.249 26.85C116.599 26.85 117.799 27.1333 118.849 27.7C119.899 28.2667 120.716 29.075 121.299 30.125C121.899 31.175 122.199 32.4 122.199 33.8ZM117.824 32.675C117.824 31.9417 117.574 31.3583 117.074 30.925C116.574 30.4917 115.949 30.275 115.199 30.275C114.482 30.275 113.874 30.4833 113.374 30.9C112.891 31.3167 112.591 31.9083 112.474 32.675H117.824ZM149.627 23.45V41H145.352V30.475L141.427 41H137.977L134.027 30.45V41H129.752V23.45H134.802L139.727 35.6L144.602 23.45H149.627ZM154.701 41.2C153.951 41.2 153.335 40.9833 152.851 40.55C152.385 40.1 152.151 39.55 152.151 38.9C152.151 38.2333 152.385 37.675 152.851 37.225C153.335 36.775 153.951 36.55 154.701 36.55C155.435 36.55 156.035 36.775 156.501 37.225C156.985 37.675 157.226 38.2333 157.226 38.9C157.226 39.55 156.985 40.1 156.501 40.55C156.035 40.9833 155.435 41.2 154.701 41.2Z" fill="#222B47"/>
</svg>
